<mxfile modified="2020-02-20T06:24:14.364Z" host="www.draw.io" agent="Mozilla/5.0 (X11; Linux x86_64) AppleWebKit/537.36 (KHTML, like Gecko) Chrome/78.0.3904.70 Safari/537.36" etag="Kj-kB8BqCNfgInrcFo91" version="12.7.2" type="github">
  <diagram id="jG1p55GaaDX1h2x8zQqW" name="Page-1">
    <mxGraphModel dx="1341" dy="792" grid="1" gridSize="5" guides="1" tooltips="1" connect="1" arrows="1" fold="1" page="1" pageScale="1" pageWidth="827" pageHeight="1169" math="0" shadow="0">
      <root>
        <mxCell id="0" />
        <mxCell id="1" parent="0" />
        <mxCell id="PTIgeDOxGq2y4XtCgkPI-6" style="edgeStyle=orthogonalEdgeStyle;rounded=0;orthogonalLoop=1;jettySize=auto;html=1;entryX=0.5;entryY=0;entryDx=0;entryDy=0;" parent="1" source="DfgidcjFea0pvdcDugAO-1" target="PTIgeDOxGq2y4XtCgkPI-5" edge="1">
          <mxGeometry relative="1" as="geometry" />
        </mxCell>
        <mxCell id="DfgidcjFea0pvdcDugAO-1" value="Pending" style="rounded=0;whiteSpace=wrap;html=1;fillColor=#99FFFF;" parent="1" vertex="1">
          <mxGeometry x="270" y="40" width="100" height="40" as="geometry" />
        </mxCell>
        <mxCell id="hPBZhZ-cZcQ_pTrDeHcl-2" style="edgeStyle=orthogonalEdgeStyle;rounded=0;orthogonalLoop=1;jettySize=auto;html=1;exitX=0.5;exitY=1;exitDx=0;exitDy=0;" parent="1" source="PTIgeDOxGq2y4XtCgkPI-5" target="hPBZhZ-cZcQ_pTrDeHcl-1" edge="1">
          <mxGeometry relative="1" as="geometry" />
        </mxCell>
        <mxCell id="PTIgeDOxGq2y4XtCgkPI-5" value="Actioned" style="rounded=0;whiteSpace=wrap;html=1;fillColor=#99FFFF;" parent="1" vertex="1">
          <mxGeometry x="270" y="180" width="100" height="40" as="geometry" />
        </mxCell>
        <mxCell id="hPBZhZ-cZcQ_pTrDeHcl-1" value="Acknowledged" style="rounded=0;whiteSpace=wrap;html=1;fillColor=#99FFFF;" parent="1" vertex="1">
          <mxGeometry x="270" y="332" width="100" height="40" as="geometry" />
        </mxCell>
        <mxCell id="hPBZhZ-cZcQ_pTrDeHcl-3" value="If user clicks &quot;Approve&quot;/&quot;Discard&quot; before the `expire_at` time.&lt;br&gt;&lt;br&gt;User&#39;s decision is stored in `user_action` column" style="text;html=1;strokeColor=none;fillColor=none;align=center;verticalAlign=middle;whiteSpace=wrap;rounded=0;" parent="1" vertex="1">
          <mxGeometry x="135" y="95" width="180" height="75" as="geometry" />
        </mxCell>
        <mxCell id="hPBZhZ-cZcQ_pTrDeHcl-4" value="Once the info is successfully sent to Blueshift over command channel" style="text;html=1;strokeColor=none;fillColor=none;align=center;verticalAlign=middle;whiteSpace=wrap;rounded=0;" parent="1" vertex="1">
          <mxGeometry x="323" y="245" width="180" height="48" as="geometry" />
        </mxCell>
      </root>
    </mxGraphModel>
  </diagram>
</mxfile>
